<?xml version="1.0" standalone="no"?>
<!DOCTYPE svg PUBLIC "-//W3C//DTD SVG 20010904//EN"
 "http://www.w3.org/TR/2001/REC-SVG-20010904/DTD/svg10.dtd">
<svg version="1.0" xmlns="http://www.w3.org/2000/svg"
 width="512.000000pt" height="512.000000pt" viewBox="0 0 512.000000 512.000000"
 preserveAspectRatio="xMidYMid meet">

<g transform="translate(0.000000,512.000000) scale(0.100000,-0.100000)"
fill="currentColor" stroke="currentColor">
<path d="M2505 4855 c-25 -24 -25 -26 -25 -215 0 -189 0 -191 25 -215 15 -16
36 -25 55 -25 19 0 40 9 55 25 25 24 25 26 25 215 0 189 0 191 -25 215 -15 16
-36 25 -55 25 -19 0 -40 -9 -55 -25z"/>
<path d="M3146 4857 l-26 -26 0 -214 0 -215 -47 -7 c-103 -15 -196 -84 -243
-180 -20 -41 -24 -65 -24 -135 0 -93 17 -143 73 -211 37 -44 131 -95 194 -104
l47 -7 0 -135 c0 -129 1 -135 25 -158 24 -25 25 -25 218 -25 181 0 196 1 220
20 25 20 26 25 24 110 -2 76 1 92 19 117 72 98 196 98 268 0 18 -25 21 -41 19
-117 -2 -85 -1 -90 24 -110 24 -19 39 -20 300 -20 l274 0 26 26 c26 26 26 27
19 132 -43 693 -587 1236 -1280 1279 -103 6 -104 6 -130 -20z m299 -164 c220
-42 431 -157 601 -327 198 -199 307 -425 348 -723 l6 -43 -159 0 -159 0 -7 48
c-9 62 -60 156 -104 193 -68 56 -118 73 -211 73 -70 0 -94 -4 -135 -24 -96
-47 -165 -140 -180 -243 l-7 -47 -79 0 -79 0 0 139 c0 124 -2 141 -20 164 -20
25 -25 26 -110 24 -98 -2 -124 9 -167 73 -46 66 -24 160 50 214 25 18 41 21
117 19 85 -2 90 -1 110 24 19 24 20 39 20 244 l0 219 43 -6 c23 -3 78 -12 122
-21z"/>
<path d="M1545 4595 c-14 -13 -25 -35 -25 -47 0 -24 131 -265 177 -325 20 -27
31 -33 63 -33 30 0 43 6 59 26 12 15 21 36 21 47 0 25 -155 303 -187 335 -30
30 -77 29 -108 -3z"/>
<path d="M2350 4224 c-107 -17 -296 -77 -391 -125 -387 -194 -650 -543 -735
-975 -25 -122 -25 -366 0 -488 84 -426 349 -781 724 -970 l52 -26 0 -60 0 -60
-56 0 c-87 0 -133 -18 -189 -75 -64 -63 -75 -100 -75 -245 0 -145 11 -182 75
-245 56 -57 102 -75 188 -75 l55 0 3 -168 4 -168 37 -76 c45 -91 103 -147 196
-191 l67 -32 255 0 255 0 67 32 c93 44 151 100 196 191 l37 76 4 168 3 168 57
0 c86 0 143 24 194 80 56 62 67 102 67 240 0 138 -11 178 -67 240 -51 57 -108
80 -195 80 l-58 0 0 60 0 60 58 29 c175 88 362 248 482 411 75 103 171 294
204 412 30 103 56 271 56 357 0 52 -4 66 -25 86 -24 25 -24 25 -238 25 l-215
0 -7 48 c-9 62 -60 156 -104 193 -68 56 -118 73 -211 73 -70 0 -94 -4 -135
-24 -96 -47 -165 -140 -180 -243 l-7 -47 -79 0 -79 0 0 139 c0 124 -2 141 -20
164 -20 25 -25 26 -110 24 -76 -2 -92 1 -117 19 -98 72 -98 196 0 268 25 18
41 21 117 19 85 -2 90 -1 110 24 19 24 20 39 20 300 l0 274 -25 24 c-21 22
-32 25 -97 24 -40 -1 -116 -7 -168 -15z m130 -303 l0 -159 -47 -7 c-103 -15
-196 -84 -243 -180 -20 -41 -24 -65 -24 -135 0 -93 17 -143 73 -211 37 -44
131 -95 194 -104 l47 -7 0 -79 0 -79 -139 0 c-124 0 -141 -2 -164 -20 -25 -20
-26 -25 -24 -110 2 -76 -1 -92 -19 -117 -72 -98 -196 -98 -268 0 -18 25 -21
41 -19 117 2 85 1 90 -24 110 -24 19 -39 20 -244 20 l-219 0 6 43 c41 298 150
524 348 723 177 177 404 296 636 334 41 6 82 13 90 15 41 8 40 10 40 -154z
m720 -823 c64 -44 75 -70 73 -168 -2 -85 -1 -90 24 -110 24 -19 39 -20 244
-20 l219 0 -6 -42 c-24 -175 -59 -290 -132 -432 -115 -224 -297 -403 -526
-516 -55 -28 -109 -60 -118 -71 -15 -17 -18 -40 -18 -120 l0 -99 -160 0 -160
0 0 239 0 239 47 7 c53 8 125 41 170 79 16 14 45 53 64 88 31 58 34 70 34 148
0 78 -3 90 -34 148 -51 95 -131 152 -234 167 l-47 7 0 79 0 79 139 0 c124 0
141 2 164 20 25 20 26 25 24 110 -2 76 1 92 19 117 35 48 82 73 134 73 32 0
57 -7 80 -22z m-1515 -345 c15 -103 72 -183 167 -234 58 -31 70 -34 148 -34
78 0 90 3 148 34 35 19 74 48 88 64 38 45 71 117 79 170 l7 47 79 0 79 0 0
-139 c0 -124 2 -141 20 -164 20 -25 25 -26 110 -24 76 2 92 -1 117 -19 98 -72
98 -196 0 -268 -25 -18 -41 -21 -117 -19 -136 4 -130 21 -130 -348 l0 -299
-160 0 -160 0 0 99 c0 80 -3 103 -17 120 -10 11 -63 43 -118 70 -367 182 -611
534 -658 949 l-5 42 158 0 158 0 7 -47z m1570 -1418 c24 -23 25 -31 25 -135 0
-104 -1 -112 -25 -135 l-24 -25 -671 0 -671 0 -24 25 c-24 23 -25 31 -25 135
0 104 1 112 25 135 l24 25 671 0 671 0 24 -25z m-935 -590 c0 -131 1 -137 25
-160 32 -33 78 -33 110 0 24 23 25 29 25 160 l0 135 80 0 80 0 0 -135 c0 -131
1 -137 25 -160 15 -16 36 -25 55 -25 19 0 40 9 55 25 24 23 25 29 25 160 l0
135 80 0 80 0 0 -136 c0 -170 -9 -204 -75 -269 -68 -69 -94 -75 -325 -75 -231
0 -257 6 -325 75 -66 65 -75 99 -75 269 l0 136 80 0 80 0 0 -135z"/>
<path d="M845 3895 c-30 -29 -33 -74 -7 -104 24 -28 311 -191 338 -191 12 0
33 9 48 21 35 27 37 86 4 116 -38 34 -311 183 -336 183 -12 0 -34 -11 -47 -25z"/>
<path d="M585 2935 c-16 -15 -25 -36 -25 -55 0 -19 9 -40 25 -55 24 -25 26
-25 215 -25 189 0 191 0 215 25 16 15 25 36 25 55 0 19 -9 40 -25 55 -24 25
-26 25 -215 25 -189 0 -191 0 -215 -25z"/>
<path d="M4105 2935 c-16 -15 -25 -36 -25 -55 0 -19 9 -40 25 -55 24 -25 26
-25 215 -25 189 0 191 0 215 25 16 15 25 36 25 55 0 19 -9 40 -25 55 -24 25
-26 25 -215 25 -189 0 -191 0 -215 -25z"/>
<path d="M1005 2075 c-82 -47 -158 -95 -167 -106 -38 -45 -3 -129 54 -129 25
0 298 149 336 183 33 30 31 89 -4 116 -15 12 -36 21 -48 21 -11 0 -88 -38
-171 -85z"/>
<path d="M3896 2139 c-20 -16 -26 -29 -26 -59 0 -32 6 -43 33 -63 60 -46 301
-177 325 -177 57 0 92 84 55 129 -25 28 -312 191 -339 191 -12 0 -33 -9 -48
-21z"/>
</g>
</svg>
